<svg xmlns="http://www.w3.org/2000/svg" viewBox="0 0 200 200" fill="white">
  <!-- Hair -->
  <path d="M100 30 C60 25, 40 50, 55 75 C35 70, 30 50, 45 35 C55 20, 80 15, 100 20 C120 15, 150 20, 160 40 C170 55, 165 75, 150 80 C160 60, 155 35, 130 30 C120 27, 110 28, 100 30Z"/>
  <!-- Left eyebrow -->
  <path d="M68 78 C72 72, 82 72, 86 76" stroke="white" stroke-width="4" fill="none" stroke-linecap="round"/>
  <!-- Right eyebrow -->
  <path d="M102 76 C106 72, 116 72, 120 78" stroke="white" stroke-width="4" fill="none" stroke-linecap="round"/>
  <!-- Left eye (glasses) -->
  <circle cx="77" cy="92" r="13" fill="none" stroke="white" stroke-width="4"/>
  <circle cx="77" cy="92" r="5"/>
  <!-- Right eye (glasses) -->
  <circle cx="111" cy="92" r="13" fill="none" stroke="white" stroke-width="4"/>
  <circle cx="111" cy="92" r="5"/>
  <!-- Glasses bridge -->
  <path d="M90 90 C95 87, 99 87, 98 90" stroke="white" stroke-width="3" fill="none"/>
  <!-- Glasses arm right -->
  <path d="M124 90 C135 88, 148 90, 155 95" stroke="white" stroke-width="3" fill="none"/>
  <!-- Mustache -->
  <path d="M72 112 C78 105, 85 108, 94 112 C103 108, 110 105, 116 112 C112 118, 104 120, 94 115 C84 120, 76 118, 72 112Z"/>
  <!-- Pipe -->
  <path d="M94 115 L88 130 L82 140 C78 145, 72 148, 68 145" stroke="white" stroke-width="4" fill="none" stroke-linecap="round"/>
  <rect x="60" y="140" width="18" height="12" rx="3" fill="none" stroke="white" stroke-width="3"/>
  <!-- Smoke puffs -->
  <circle cx="50" cy="128" r="4"/>
  <circle cx="42" cy="118" r="5.5"/>
  <circle cx="38" cy="105" r="3.5"/>
  <!-- Ear curl -->
  <path d="M158 100 C163 105, 162 112, 157 115" stroke="white" stroke-width="3" fill="none" stroke-linecap="round"/>
</svg>
